# xmcd
# 
# Track frame offsets:
#     150
#     12008
#     26014
#     39607
#     53414
#     67729
#     78331
#     91260
#     103379
#     118807
#     131360
#     145294
#     157653
#     170137
#     184052
#     195245
#     207831
#     231402
#     244342
#     254954
# 
# Disc length: 3591
# 
# Revision: 0
# Processed by: cddbd v1.5.2PL0 Copyright (c) Steve Scherf et al.
# Submitted via: fre:ac v1.0.31
# 
DISCID=110e0514
DTITLE=Josephine Baker - The Very Best of (2/2)
DYEAR=2018
DGENRE=Jazz
TTITLE0=Avec
TTITLE1=Comme une banque
TTITLE2=Haiti
TTITLE3=Je voudrais
TTITLE4=Mon p'tit bonhomme
TTITLE5=Sous les toits de Paris
TTITLE6=Bonsoir My Love (Goodnight My Love)
TTITLE7=C'est ca le vrai bonheur
TTITLE8=En avril à Paris
TTITLE9=J'ai deux amours
TTITLE10=La Seine
TTITLE11=Pardon si je t'importune
TTITLE12=Revoir Paris (Maria Bonita)
TTITLE13=Toc-Toc partout (Knock Knock)
TTITLE14=Boneca de Pixe
TTITLE15=Chiquita Madame
TTITLE16=Donnez-moi la main
TTITLE17=J'ai peur de rêver (Afraid to Dream)
TTITLE18=La petite tonkinoise
TTITLE19=Moi 'Io'
EXTD=
EXTT0=
EXTT1=
EXTT2=
EXTT3=
EXTT4=
EXTT5=
EXTT6=
EXTT7=
EXTT8=
EXTT9=
EXTT10=
EXTT11=
EXTT12=
EXTT13=
EXTT14=
EXTT15=
EXTT16=
EXTT17=
EXTT18=
EXTT19=
PLAYORDER=
